<svg width="48" height="48" viewBox="0 0 48 48" fill="none" xmlns="http://www.w3.org/2000/svg">
<path d="M0 23.6385C0 10.5833 10.7452 0 24 0C37.2548 0 48 10.5833 48 23.6385C48 36.6936 37.2548 47.277 24 47.277C10.7452 47.277 0 36.6936 0 23.6385Z" fill="#5D5683"/>
<path fill-rule="evenodd" clip-rule="evenodd" d="M10 23.5994C10 16.0175 16.2802 9.84937 23.9998 9.84937C31.7194 9.84937 37.9997 16.0175 37.9997 23.5994C37.9997 24.6735 37.9087 25.543 37.7048 26.4157L37.7018 26.4302C37.7013 26.4327 37.6001 26.8351 37.5442 27.0106C37.1982 28.0975 36.5718 29.0027 35.7325 29.6284C34.9186 30.2353 33.9094 30.5696 32.891 30.5696C32.7652 30.5696 32.6385 30.5646 32.5144 30.5548C31.0682 30.4408 29.7966 29.6933 29.0168 28.5014C27.6757 29.8259 25.8964 30.5545 23.9998 30.5545C20.0951 30.5545 16.9184 27.4344 16.9184 23.5994C16.9184 19.7643 20.0951 16.6443 23.9998 16.6443C27.9045 16.6443 31.0812 19.7643 31.0812 23.5994V25.8414C31.087 27.1496 31.9808 27.6843 32.7444 27.7448C33.5041 27.8024 34.5152 27.3677 34.8674 25.9492C35.0411 25.1712 35.1294 24.3804 35.1294 23.5994C35.1294 17.572 30.1367 12.6684 23.9998 12.6684C17.8629 12.6684 12.8703 17.572 12.8703 23.5994C12.8703 29.6267 17.8629 34.5304 23.9998 34.5304C26.136 34.5304 28.2136 33.9312 30.0079 32.7975L30.0401 32.7771L31.9261 34.9308L31.8856 34.958C29.5549 36.5225 26.828 37.3495 23.9998 37.3495C16.2802 37.3495 10 31.1812 10 23.5994ZM23.9998 27.7354C26.3218 27.7354 28.2109 25.88 28.2109 23.5994C28.2109 21.3188 26.3218 19.4635 23.9998 19.4635C21.6777 19.4635 19.7887 21.3188 19.7887 23.5994C19.7887 25.88 21.6777 27.7354 23.9998 27.7354Z" fill="white"/>
</svg>
