<svg width="30" height="30" viewBox="0 0 30 30" fill="none" xmlns="http://www.w3.org/2000/svg">
<g clip-path="url(#clip0_62_227)">
<path d="M19.6867 0.0048224V0.0320208C19.5658 0.0320208 19.0671 -0.0148497 17.812 0.0048224H6.56386C4.49323 0.0048224 2.81445 1.6836 2.81445 3.75423V26.2506C2.81445 28.3212 4.49323 30 6.56386 30H23.4361C25.5068 30 27.1855 28.3212 27.1855 26.2506V7.50359L19.6867 0.0048224ZM25.3108 26.2506C25.3108 27.2854 24.4719 28.1253 23.4361 28.1253H6.56386C5.52808 28.1253 4.68915 27.2854 4.68915 26.2506V3.75423C4.68915 2.71845 5.52808 1.87952 6.56386 1.87952H17.7858C17.7689 4.12449 17.812 5.62893 17.812 5.62893C17.812 7.69955 19.4908 9.37833 21.5614 9.37833C21.5614 9.37833 23.1277 9.37833 25.3108 9.37833L25.3108 26.2506ZM21.5614 7.50363C20.5256 7.50363 19.6867 6.66378 19.6867 5.62893C19.6867 5.62893 19.6867 4.11135 19.6867 1.87952L25.3108 7.50359H21.5614V7.50363Z" fill="black"/>
</g>
<defs>
<clipPath id="clip0_62_227">
<rect width="30" height="30" fill="white"/>
</clipPath>
</defs>
</svg>
