<svg width="112" height="51" viewBox="0 0 112 51" fill="none" xmlns="http://www.w3.org/2000/svg">
<path d="M36.821 17.1988H43.6079V18.0886C43.1984 18.2727 42.7992 18.4261 42.4102 18.5488C42.0212 18.6716 41.6425 18.7738 41.2739 18.8557L35.1013 27.0174C35.6131 27.6925 36.1966 28.4493 36.8517 29.288C37.5274 30.1267 38.2234 30.9961 38.94 31.8961C39.677 32.7757 40.4243 33.6757 41.1818 34.5962C41.9598 35.4963 42.7173 36.3554 43.4543 37.1736L44.9284 37.9101V38.6771H41.0897L40.0456 37.9407C38.8376 36.5293 37.6297 35.0054 36.4218 33.3689C35.2344 31.7325 34.0776 30.0756 32.9516 28.3982H31.4468V37.0509C32.3886 37.2146 33.1563 37.46 33.7501 37.7873V38.6771H25.9805V37.7873C26.7994 37.46 27.6388 37.2146 28.4987 37.0509V18.8557C27.5774 18.7329 26.738 18.4772 25.9805 18.0886V17.1988H33.7501V18.0886C33.4225 18.2318 33.0642 18.375 32.6752 18.5181C32.2862 18.6409 31.8768 18.7534 31.4468 18.8557V27.355L33.2894 26.9254L39.0321 18.8557C38.6227 18.7534 38.2337 18.6409 37.8652 18.5181C37.4966 18.3954 37.1486 18.2522 36.821 18.0886V17.1988Z" fill="black"/>
<path d="M44.3737 24.8696C44.0666 24.7878 43.78 24.6855 43.5138 24.5628C43.2682 24.44 43.0122 24.2968 42.7461 24.1332V23.3354H49.1644V24.1025C48.7345 24.3889 48.151 24.6446 47.414 24.8696L51.3448 33.9519L51.9283 35.8543H51.9897L52.4504 33.9212L55.3678 24.8696C54.7536 24.7469 54.1906 24.5014 53.6788 24.1332V23.3354H58.9301V24.1332C58.5002 24.4196 57.9167 24.665 57.1797 24.8696L52.389 38.6771C51.8976 39.9863 51.4267 41.0398 50.9763 41.8375C50.5464 42.6558 50.1062 43.3001 49.6558 43.7706C49.2259 44.2411 48.7754 44.5786 48.3046 44.7831C47.8542 45.0081 47.3628 45.1718 46.8305 45.2741C46.6053 44.8854 46.4006 44.4558 46.2163 43.9854C46.0525 43.5149 45.9092 43.0649 45.7864 42.6353L46.1856 41.8989H49.3794C49.5023 41.7352 49.6046 41.5716 49.6865 41.408C49.7889 41.2648 49.8912 41.0807 49.9936 40.8557C50.096 40.6306 50.2086 40.3443 50.3314 39.9965C50.4543 39.6488 50.5976 39.209 50.7613 38.6771L44.3737 24.8696Z" fill="black"/>
<path d="M66.3583 44.8138H59.5407V44.0467C60.2368 43.7194 60.9125 43.474 61.5676 43.3103V25.1151L59.5407 24.8696V24.0718C60.1959 23.7855 60.8613 23.5604 61.5369 23.3968C62.233 23.2127 62.9086 23.0695 63.5637 22.9672H64.3315V26.4038H64.3622C64.7716 25.3605 65.3449 24.5321 66.0819 23.9184C66.819 23.2843 67.7812 22.9672 68.9687 22.9672C70.7908 22.9672 72.2034 23.5707 73.2066 24.7776C74.2098 25.9844 74.7114 27.9482 74.7114 30.6688C74.7114 31.9575 74.5373 33.1234 74.1893 34.1667C73.8617 35.2099 73.3806 36.0895 72.7459 36.8055C72.1318 37.5214 71.3742 38.0737 70.4734 38.4624C69.5931 38.851 68.6104 39.0453 67.5253 39.0453C66.7678 39.0453 66.1741 38.9942 65.7441 38.8919C65.3142 38.8101 64.8433 38.6567 64.3315 38.4317V43.3103C64.659 43.3512 64.9866 43.4228 65.3142 43.5251C65.6418 43.6478 65.9898 43.8217 66.3583 44.0467V44.8138ZM67.9859 24.8696C66.9827 24.8696 66.1843 25.1867 65.5906 25.8208C64.9968 26.4549 64.5771 27.3243 64.3315 28.4289V37.0202C64.7 37.2452 65.1095 37.4191 65.5599 37.5419C66.0307 37.6441 66.6347 37.6953 67.3717 37.6953C68.0474 37.6953 68.6513 37.5214 69.1836 37.1736C69.7364 36.8259 70.197 36.335 70.5656 35.7008C70.9546 35.0667 71.2514 34.3303 71.4561 33.4916C71.6609 32.6325 71.7632 31.6915 71.7632 30.6688C71.7632 29.8301 71.6916 29.063 71.5483 28.3675C71.4254 27.6516 71.2105 27.0379 70.9034 26.5265C70.6167 25.9947 70.2277 25.5856 69.7364 25.2992C69.2655 25.0128 68.682 24.8696 67.9859 24.8696Z" fill="black"/>
<path d="M89.096 36.5293C88.7275 37.2452 88.1236 37.8487 87.2841 38.3396C86.4652 38.8101 85.503 39.0453 84.3974 39.0453C83.1895 39.0453 82.1351 38.8612 81.2343 38.493C80.354 38.1044 79.6169 37.5623 79.0232 36.8668C78.4295 36.1509 77.9791 35.302 77.672 34.3201C77.3854 33.3178 77.2421 32.2132 77.2421 31.0063C77.2421 28.4084 77.8767 26.4242 79.1461 25.0537C80.4154 23.6627 82.1454 22.9672 84.336 22.9672C85.3392 22.9672 86.2298 23.0593 87.0078 23.2434C87.8062 23.407 88.4818 23.632 89.0346 23.9184C88.9732 24.5935 88.8606 25.3503 88.6968 26.189C88.533 27.0277 88.3283 27.7232 88.0826 28.2755H87.2534L85.9636 24.6241C85.8203 24.5219 85.6565 24.4503 85.4723 24.4094C85.288 24.348 84.9809 24.3173 84.551 24.3173C83.1588 24.3173 82.084 24.8287 81.3265 25.8515C80.5689 26.8538 80.1902 28.5618 80.1902 30.9756C80.1902 31.7529 80.2926 32.5098 80.4973 33.2462C80.7225 33.9826 81.0501 34.6474 81.48 35.2406C81.9304 35.8134 82.4832 36.2736 83.1383 36.6213C83.8139 36.9691 84.5919 37.143 85.4723 37.143C86.1888 37.143 86.8133 37.0407 87.3456 36.8361C87.8779 36.6316 88.3283 36.3861 88.6968 36.0997L89.096 36.5293Z" fill="black"/>
<path d="M96.2766 29.5948C96.6246 29.5539 97.0136 29.5028 97.4436 29.4414C97.8735 29.3801 98.4979 29.3494 99.3169 29.3494C100.852 29.3494 102.081 29.7074 103.002 30.4233C103.944 31.1392 104.415 32.2643 104.415 33.7985C104.415 34.6167 104.261 35.3429 103.954 35.977C103.667 36.5907 103.258 37.1123 102.726 37.5419C102.193 37.951 101.559 38.268 100.822 38.493C100.085 38.6976 99.2759 38.7999 98.3956 38.7999C97.8428 38.7999 97.2184 38.7794 96.5223 38.7385C95.8467 38.6976 95.1199 38.6771 94.3419 38.6771H91.4859V37.9101C91.8339 37.7055 92.1717 37.5521 92.4993 37.4498C92.8269 37.3475 93.1647 37.2555 93.5127 37.1736V24.8696C93.1237 24.8082 92.7654 24.7162 92.4379 24.5935C92.1103 24.4503 91.793 24.2968 91.4859 24.1332V23.3354H98.1192V24.1332C97.6483 24.4196 97.0341 24.665 96.2766 24.8696V29.5948ZM96.2766 37.3577C96.5427 37.3782 96.8089 37.3987 97.075 37.4191C97.3412 37.4396 97.6176 37.4498 97.9042 37.4498C100.218 37.4498 101.374 36.2225 101.374 33.7678C101.374 33.195 101.282 32.7143 101.098 32.3257C100.934 31.9166 100.699 31.5995 100.392 31.3745C100.105 31.129 99.7673 30.9551 99.3783 30.8529C98.9893 30.7506 98.5798 30.6995 98.1499 30.6995C97.8633 30.6995 97.5562 30.7097 97.2286 30.7301C96.901 30.7301 96.5837 30.7608 96.2766 30.8222V37.3577ZM112 38.6771H105.397V37.9101C105.684 37.7669 105.971 37.6339 106.257 37.5112C106.544 37.3884 106.861 37.2759 107.209 37.1736V24.8696C106.431 24.7264 105.817 24.4809 105.367 24.1332V23.3354H112V24.1332C111.754 24.2968 111.457 24.44 111.109 24.5628C110.761 24.665 110.383 24.7673 109.973 24.8696V37.1736C110.321 37.2759 110.659 37.3884 110.987 37.5112C111.314 37.6134 111.652 37.7464 112 37.9101V38.6771Z" fill="black"/>
<path d="M0 50.1834V48.4038C1.43312 47.7492 3.11192 47.2583 5.0364 46.931V10.5405C4.09464 10.3359 3.19382 10.1109 2.33394 9.86543C1.47407 9.57905 0.696088 9.29267 0 9.00629V7.22665H6.26479C6.96088 7.22665 7.77981 7.20619 8.72158 7.16528C9.66334 7.12437 10.6256 7.08346 11.6083 7.04255C12.632 6.96073 13.5942 6.89936 14.495 6.85845C15.4368 6.77663 16.2148 6.73572 16.829 6.73572C23.7898 6.73572 29.1333 8.59718 32.8595 12.3201C33.3174 12.7727 33.7476 13.2483 34.1499 13.7469H26.3775C26.3775 13.7469 25.5096 12.7906 23.4623 11.6451C21.4149 10.4995 18.9172 9.92679 15.9691 9.92679C14.9045 9.92679 13.8808 9.94725 12.8981 9.98816C11.9154 9.98816 11.1374 10.0495 10.5642 10.1723V47.3605C10.7689 47.4015 11.1374 47.4424 11.6697 47.4833C12.202 47.4833 12.7753 47.5037 13.3895 47.5446H16.3376C19.1629 47.5446 21.5583 47.0128 23.5237 45.9491C25.1826 45.0513 26.5789 43.9058 27.7127 42.5126H34.3941C33.9419 43.1349 33.4509 43.7281 32.9209 44.2922C31.0373 46.2969 28.642 47.8719 25.7348 49.0174C22.8685 50.163 19.47 50.7357 15.5391 50.7357C14.925 50.7357 14.2289 50.6948 13.4509 50.613C12.6729 50.5721 11.854 50.5107 10.9941 50.4289C10.1342 50.388 9.25388 50.3266 8.35306 50.2448C7.49319 50.2039 6.67426 50.1834 5.89628 50.1834H0Z" fill="black"/>
<path d="M21.3297 5.67158L24.6599 5.81105L37.2609 5.00776L7.92943 0L18.8831 4.5997L21.3297 5.67158Z" fill="#817D7D"/>
<path d="M21.3297 5.67158L30.6842 10.4274C22.6101 7.99598 20.0923 7.34104 11.6684 6.95572L21.3297 5.67158Z" fill="#817D7D"/>
<path d="M11.6684 6.95572L21.3297 5.67158L18.8831 4.5997C16.1374 4.13093 13.9233 4.18201 11.6684 6.95572Z" fill="#817D7D"/>
<path d="M21.3297 5.67158L30.6842 10.4274C29.4773 7.06263 27.8033 6.34773 24.6599 5.81105L21.3297 5.67158Z" fill="#817D7D"/>
</svg>
