<svg width="23" height="12" viewBox="0 0 23 12" fill="none" xmlns="http://www.w3.org/2000/svg">
<path d="M0 1C0 0.447715 0.447715 0 1 0H22C22.5523 0 23 0.447715 23 1C23 1.55228 22.5523 2 22 2H1C0.447715 2 0 1.55228 0 1Z" fill="black"/>
<path d="M0 6C0 5.44772 0.447715 5 1 5H22C22.5523 5 23 5.44772 23 6C23 6.55228 22.5523 7 22 7H1C0.447715 7 0 6.55228 0 6Z" fill="black"/>
<path d="M0 11C0 10.4477 0.447715 10 1 10H22C22.5523 10 23 10.4477 23 11C23 11.5523 22.5523 12 22 12H1C0.447715 12 0 11.5523 0 11Z" fill="black"/>
</svg>
