<svg width="1921" height="1265" viewBox="0 0 1921 1265" fill="none" xmlns="http://www.w3.org/2000/svg">
<path d="M304.5 375.5C382.648 375.5 446 312.148 446 234C446 216.774 442.922 200.268 437.286 185H171.714C166.078 200.268 163 216.774 163 234C163 312.148 226.352 375.5 304.5 375.5Z" fill="#FFCD7F"/>
<circle cx="316" cy="765" r="40" fill="#FFCD7F"/>
<path d="M1436.92 543.04L1656.03 364.02L1875.14 185L1500.96 185L1286.89 358.879C1235.87 400.318 1228.21 475.313 1269.8 526.211C1311.3 577.007 1386.12 584.541 1436.92 543.04Z" fill="#FF7300"/>
<path d="M1919.58 185L1666.24 396.927L1665.08 397.893L1332.62 669.524C1282.34 710.602 1274.88 784.66 1315.96 834.938C1357.04 885.216 1431.1 892.674 1481.38 851.596L1674.31 693.961L1919.58 493.57V185Z" fill="#FF7300"/>
<path d="M1632.49 955.19L1717.32 1059.02C1767.67 1120.65 1858.45 1129.79 1920.08 1079.44V526.52L1690.58 714.027L1653.74 744.126C1589.59 796.54 1580.07 891.037 1632.49 955.19Z" fill="#FF7300"/>
<path d="M1875.14 185L1656.03 364.02C1679.76 344.633 1693.7 373.401 1666.24 396.927L1919.58 185H1875.14Z" fill="#FF7300"/>
<path d="M1919.58 493.57L1674.31 693.961C1705.08 668.822 1725.08 685.839 1690.58 714.027L1920.08 526.52L1919.58 493.57Z" fill="#FF7300"/>
<path d="M1649.29 184.994L1507.6 313.411C1494.16 325.588 1493.12 346.345 1505.27 359.803C1517.45 373.284 1538.24 374.341 1551.72 362.164L1649.75 273.579L1747.79 184.994L1649.29 184.994Z" fill="#FF1F00"/>
<path d="M1764.83 185.116L1658 281.576L1610.06 324.864C1602.85 331.375 1602.28 342.5 1608.79 349.712C1615.3 356.924 1626.43 357.491 1633.64 350.98L1658 331.5L1817.34 185.116L1764.83 185.116Z" fill="#FF1F00"/>
<path d="M1840.04 185L1710.25 302.184C1693.29 317.504 1690.46 342.64 1702.6 361.185C1703.89 363.144 1705.34 365.031 1706.96 366.824C1708.68 368.727 1710.52 370.453 1712.46 372C1729.66 385.694 1754.74 385.342 1771.6 370.122L1917 238.837V185L1840.04 185Z" fill="#FF1F00"/>
<path d="M1747.79 184.994L1649.75 273.579C1654.27 269.5 1663.5 276.61 1658 281.576L1764.83 185.116L1747.79 184.994Z" fill="#FF1F00"/>
<path d="M1710.25 302.184L1840.04 185L1817.34 185.116L1658 331.5C1670 320.665 1686.86 341.647 1702.6 361.185C1690.46 342.64 1693.29 317.504 1710.25 302.184Z" fill="#FF1F00"/>
<path d="M1418.59 700.344L1421.8 704.174L1917 288.652L1917 282.125L1418.59 700.344Z" fill="#770E00"/>
<circle cx="1776" cy="537" r="30" fill="#770E00"/>
<circle cx="1520" cy="811" r="15" fill="#770E00"/>
<path d="M944 418.5C944 422.642 940.642 426 936.5 426C932.358 426 929 422.642 929 418.5C929 414.358 932.358 411 936.5 411C940.642 411 944 414.358 944 418.5Z" fill="#770E00"/>
<path d="M910 418.5C910 422.642 906.642 426 902.5 426C898.358 426 895 422.642 895 418.5C895 414.358 898.358 411 902.5 411C906.642 411 910 414.358 910 418.5Z" fill="#770E00"/>
<path d="M946 382.5C946 386.642 942.642 390 938.5 390C934.358 390 931 386.642 931 382.5C931 378.358 934.358 375 938.5 375C942.642 375 946 378.358 946 382.5Z" fill="#770E00"/>
<path d="M910 382.5C910 386.642 906.642 390 902.5 390C898.358 390 895 386.642 895 382.5C895 378.358 898.358 375 902.5 375C906.642 375 910 378.358 910 382.5Z" fill="#770E00"/>
<path d="M100 469.5C100 473.642 96.6421 477 92.5 477C88.3579 477 85 473.642 85 469.5C85 465.358 88.3579 462 92.5 462C96.6421 462 100 465.358 100 469.5Z" fill="#770E00"/>
<path d="M100 505.5C100 509.642 96.6421 513 92.5 513C88.3579 513 85 509.642 85 505.5C85 501.358 88.3579 498 92.5 498C96.6421 498 100 501.358 100 505.5Z" fill="#770E00"/>
<path d="M206 505.5C206 509.642 202.642 513 198.5 513C194.358 513 191 509.642 191 505.5C191 501.358 194.358 498 198.5 498C202.642 498 206 501.358 206 505.5Z" fill="#770E00"/>
<path d="M172 505.5C172 509.642 168.642 513 164.5 513C160.358 513 157 509.642 157 505.5C157 501.358 160.358 498 164.5 498C168.642 498 172 501.358 172 505.5Z" fill="#770E00"/>
<path d="M136 505.5C136 509.642 132.642 513 128.5 513C124.358 513 121 509.642 121 505.5C121 501.358 124.358 498 128.5 498C132.642 498 136 501.358 136 505.5Z" fill="#770E00"/>
<path d="M208 469.5C208 473.642 204.642 477 200.5 477C196.358 477 193 473.642 193 469.5C193 465.358 196.358 462 200.5 462C204.642 462 208 465.358 208 469.5Z" fill="#770E00"/>
<path d="M172 469.5C172 473.642 168.642 477 164.5 477C160.358 477 157 473.642 157 469.5C157 465.358 160.358 462 164.5 462C168.642 462 172 465.358 172 469.5Z" fill="#770E00"/>
<path d="M136 469.5C136 473.642 132.642 477 128.5 477C124.358 477 121 473.642 121 469.5C121 465.358 124.358 462 128.5 462C132.642 462 136 465.358 136 469.5Z" fill="#770E00"/>
<path d="M1804 1161.5C1804 1165.64 1800.64 1169 1796.5 1169C1792.36 1169 1789 1165.64 1789 1161.5C1789 1157.36 1792.36 1154 1796.5 1154C1800.64 1154 1804 1157.36 1804 1161.5Z" fill="#770E00"/>
<path d="M1804 1197.5C1804 1201.64 1800.64 1205 1796.5 1205C1792.36 1205 1789 1201.64 1789 1197.5C1789 1193.36 1792.36 1190 1796.5 1190C1800.64 1190 1804 1193.36 1804 1197.5Z" fill="#770E00"/>
<path d="M1910 1197.5C1910 1201.64 1906.64 1205 1902.5 1205C1898.36 1205 1895 1201.64 1895 1197.5C1895 1193.36 1898.36 1190 1902.5 1190C1906.64 1190 1910 1193.36 1910 1197.5Z" fill="#770E00"/>
<path d="M1876 1197.5C1876 1201.64 1872.64 1205 1868.5 1205C1864.36 1205 1861 1201.64 1861 1197.5C1861 1193.36 1864.36 1190 1868.5 1190C1872.64 1190 1876 1193.36 1876 1197.5Z" fill="#770E00"/>
<path d="M1840 1197.5C1840 1201.64 1836.64 1205 1832.5 1205C1828.36 1205 1825 1201.64 1825 1197.5C1825 1193.36 1828.36 1190 1832.5 1190C1836.64 1190 1840 1193.36 1840 1197.5Z" fill="#770E00"/>
<path d="M1912 1161.5C1912 1165.64 1908.64 1169 1904.5 1169C1900.36 1169 1897 1165.64 1897 1161.5C1897 1157.36 1900.36 1154 1904.5 1154C1908.64 1154 1912 1157.36 1912 1161.5Z" fill="#770E00"/>
<path d="M1876 1161.5C1876 1165.64 1872.64 1169 1868.5 1169C1864.36 1169 1861 1165.64 1861 1161.5C1861 1157.36 1864.36 1154 1868.5 1154C1872.64 1154 1876 1157.36 1876 1161.5Z" fill="#770E00"/>
<path d="M1840 1161.5C1840 1165.64 1836.64 1169 1832.5 1169C1828.36 1169 1825 1165.64 1825 1161.5C1825 1157.36 1828.36 1154 1832.5 1154C1836.64 1154 1840 1157.36 1840 1161.5Z" fill="#770E00"/>
<path d="M1660 1161.5C1660 1165.64 1656.64 1169 1652.5 1169C1648.36 1169 1645 1165.64 1645 1161.5C1645 1157.36 1648.36 1154 1652.5 1154C1656.64 1154 1660 1157.36 1660 1161.5Z" fill="#770E00"/>
<path d="M1660 1197.5C1660 1201.64 1656.64 1205 1652.5 1205C1648.36 1205 1645 1201.64 1645 1197.5C1645 1193.36 1648.36 1190 1652.5 1190C1656.64 1190 1660 1193.36 1660 1197.5Z" fill="#770E00"/>
<path d="M1766 1197.5C1766 1201.64 1762.64 1205 1758.5 1205C1754.36 1205 1751 1201.64 1751 1197.5C1751 1193.36 1754.36 1190 1758.5 1190C1762.64 1190 1766 1193.36 1766 1197.5Z" fill="#770E00"/>
<path d="M1732 1197.5C1732 1201.64 1728.64 1205 1724.5 1205C1720.36 1205 1717 1201.64 1717 1197.5C1717 1193.36 1720.36 1190 1724.5 1190C1728.64 1190 1732 1193.36 1732 1197.5Z" fill="#770E00"/>
<path d="M1696 1197.5C1696 1201.64 1692.64 1205 1688.5 1205C1684.36 1205 1681 1201.64 1681 1197.5C1681 1193.36 1684.36 1190 1688.5 1190C1692.64 1190 1696 1193.36 1696 1197.5Z" fill="#770E00"/>
<path d="M1768 1161.5C1768 1165.64 1764.64 1169 1760.5 1169C1756.36 1169 1753 1165.64 1753 1161.5C1753 1157.36 1756.36 1154 1760.5 1154C1764.64 1154 1768 1157.36 1768 1161.5Z" fill="#770E00"/>
<path d="M1732 1161.5C1732 1165.64 1728.64 1169 1724.5 1169C1720.36 1169 1717 1165.64 1717 1161.5C1717 1157.36 1720.36 1154 1724.5 1154C1728.64 1154 1732 1157.36 1732 1161.5Z" fill="#770E00"/>
<path d="M1696 1161.5C1696 1165.64 1692.64 1169 1688.5 1169C1684.36 1169 1681 1165.64 1681 1161.5C1681 1157.36 1684.36 1154 1688.5 1154C1692.64 1154 1696 1157.36 1696 1161.5Z" fill="#770E00"/>
<path d="M1052.5 185L997.762 230.092C969.479 253.391 965.399 295.188 988.641 323.517C1011.92 351.886 1053.78 356.015 1082.15 332.741L1262.23 185L1052.5 185Z" fill="#FF7300"/>
<path d="M638 185.197L726.514 293.084C761.544 335.781 824.555 341.997 867.252 306.966L1015.67 185.197L638 185.197Z" fill="#FF7300"/>
<circle cx="584" cy="370" r="92.5" stroke="#FF7300" stroke-width="15"/>
<circle cx="824" cy="1064" r="90" fill="#FFCD7F"/>
<line x1="499.586" y1="462.879" x2="555.88" y2="406.585" stroke="#770E00" stroke-width="5"/>
<path d="M119.438 558.928L0.119223 664.328L0.11922 865.622L127.371 753.214L206.507 683.31C237.083 656.301 242.378 606.562 218.335 572.215C194.291 537.868 150.014 531.919 119.438 558.928Z" fill="#FF1F00"/>
<path d="M301.9 857.108L259.165 796.06C231.882 757.085 181.638 750.334 146.942 780.983L7.2613e-07 910.784L0 1238L288.478 983.174C323.174 952.525 329.183 896.084 301.9 857.108Z" fill="#FF1F00"/>
<path d="M7.2613e-07 910.784L146.942 780.983C127.371 798.27 111.753 767.011 127.371 753.214L0.11922 865.622L7.2613e-07 910.784Z" fill="#FF1F00"/>
<path d="M371 871C371 879.284 364.284 886 356 886C347.716 886 341 879.284 341 871C341 862.716 347.716 856 356 856C364.284 856 371 862.716 371 871Z" fill="#770E00"/>
<path d="M331 901C331 909.284 324.284 916 316 916C307.716 916 301 909.284 301 901C301 892.716 307.716 886 316 886C324.284 886 331 892.716 331 901Z" fill="#770E00"/>
<path d="M166.605 863.886C178.281 854.17 195.622 855.759 205.338 867.434C215.054 879.11 213.466 896.451 201.79 906.167L3.28253e-05 1074.09L3.18497e-05 1002.53L95.001 923.474L166.605 863.886Z" fill="#FF7300"/>
<path d="M15.9249 785.255C32.9056 771.124 58.1266 773.434 72.2576 790.414L107.668 832.966C121.799 849.946 119.489 875.167 102.508 889.298L82.0855 906.294L0 974.604L0.123043 798.405L15.9249 785.255Z" fill="#FF7300"/>
<path d="M82.0855 906.294L0 974.604L3.18497e-05 1002.53L95.001 923.474C84.501 932.212 72.501 914.27 82.0855 906.294Z" fill="#FF7300"/>
<rect y="185" width="1920" height="1080" fill="#D9D9D9" fill-opacity="0.4"/>
</svg>
