<svg width="1921" height="1080" viewBox="0 0 1921 1080" fill="none" xmlns="http://www.w3.org/2000/svg">
<path d="M304.5 190.5C382.648 190.5 446 127.148 446 49C446 31.7745 442.922 15.2678 437.286 4.57764e-05H171.714C166.078 15.2678 163 31.7745 163 49C163 127.148 226.352 190.5 304.5 190.5Z" fill="#A2A727"/>
<path d="M356 580C356 602.091 338.091 620 316 620C293.909 620 276 602.091 276 580C276 557.909 293.909 540 316 540C338.091 540 356 557.909 356 580Z" fill="#82AF0F"/>
<path d="M1436.92 358.04L1656.03 179.02L1875.14 4.57764e-05L1500.96 6.07744e-05L1286.89 173.879C1235.87 215.318 1228.21 290.313 1269.8 341.211C1311.3 392.007 1386.12 399.541 1436.92 358.04Z" fill="#FFA101"/>
<path d="M1919.58 4.57764e-05L1666.24 211.927L1665.08 212.893L1332.62 484.524C1282.34 525.602 1274.88 599.66 1315.96 649.938C1357.04 700.216 1431.1 707.674 1481.38 666.596L1674.31 508.961L1919.58 308.57V4.57764e-05Z" fill="#FFA101"/>
<path d="M1632.49 770.19L1717.32 874.017C1767.67 935.648 1858.45 944.79 1920.08 894.436V341.52L1690.58 529.027L1653.74 559.126C1589.59 611.54 1580.07 706.037 1632.49 770.19Z" fill="#FFA101"/>
<path d="M1875.14 4.57764e-05L1656.03 179.02C1679.76 159.633 1693.7 188.401 1666.24 211.927L1919.58 4.57764e-05H1875.14Z" fill="#FFA101"/>
<path d="M1919.58 308.57L1674.31 508.961C1705.08 483.822 1725.08 500.839 1690.58 529.027L1920.08 341.52L1919.58 308.57Z" fill="#FFA101"/>
<path d="M1649.29 -0.00583684L1507.6 128.411C1494.16 140.588 1493.12 161.345 1505.27 174.803C1517.45 188.284 1538.24 189.341 1551.72 177.164L1649.75 88.5791L1747.79 -0.00585938L1649.29 -0.00583684Z" fill="#FF7300"/>
<path d="M1764.83 0.115998L1658 96.5764L1610.06 139.864C1602.85 146.375 1602.28 157.5 1608.79 164.712C1615.3 171.924 1626.43 172.491 1633.64 165.98L1658 146.5L1817.34 0.115998L1764.83 0.115998Z" fill="#FF7300"/>
<path d="M1840.04 3.21516e-05L1710.25 117.184C1693.29 132.504 1690.46 157.64 1702.6 176.185C1703.89 178.144 1705.34 180.031 1706.96 181.824C1708.68 183.728 1710.52 185.453 1712.46 187C1729.66 200.694 1754.74 200.342 1771.6 185.122L1917 53.837V3.11919e-05L1840.04 3.21516e-05Z" fill="#FF7300"/>
<path d="M1747.79 -0.00585938L1649.75 88.5791C1654.27 84.5 1663.5 91.6104 1658 96.5764L1764.83 0.115998L1747.79 -0.00585938Z" fill="#FF7300"/>
<path d="M1710.25 117.184L1840.04 3.21516e-05L1817.34 0.115998L1658 146.5C1670 135.665 1686.86 156.647 1702.6 176.185C1690.46 157.64 1693.29 132.504 1710.25 117.184Z" fill="#FF7300"/>
<path d="M1418.59 515.344L1421.8 519.174L1917 103.652V97.1251L1418.59 515.344Z" fill="white"/>
<path d="M1806 352C1806 368.569 1792.57 382 1776 382C1759.43 382 1746 368.569 1746 352C1746 335.432 1759.43 322 1776 322C1792.57 322 1806 335.432 1806 352Z" fill="white"/>
<path d="M1535 626C1535 634.284 1528.28 641 1520 641C1511.72 641 1505 634.284 1505 626C1505 617.716 1511.72 611 1520 611C1528.28 611 1535 617.716 1535 626Z" fill="#547500"/>
<path d="M944 233.5C944 237.642 940.642 241 936.5 241C932.358 241 929 237.642 929 233.5C929 229.358 932.358 226 936.5 226C940.642 226 944 229.358 944 233.5Z" fill="#547500"/>
<path d="M910 233.5C910 237.642 906.642 241 902.5 241C898.358 241 895 237.642 895 233.5C895 229.358 898.358 226 902.5 226C906.642 226 910 229.358 910 233.5Z" fill="#547500"/>
<path d="M946 197.5C946 201.642 942.642 205 938.5 205C934.358 205 931 201.642 931 197.5C931 193.358 934.358 190 938.5 190C942.642 190 946 193.358 946 197.5Z" fill="#547500"/>
<path d="M910 197.5C910 201.642 906.642 205 902.5 205C898.358 205 895 201.642 895 197.5C895 193.358 898.358 190 902.5 190C906.642 190 910 193.358 910 197.5Z" fill="#547500"/>
<path d="M100 284.5C100 288.642 96.6421 292 92.5 292C88.3579 292 85 288.642 85 284.5C85 280.358 88.3579 277 92.5 277C96.6421 277 100 280.358 100 284.5Z" fill="#547500"/>
<path d="M100 320.5C100 324.642 96.6421 328 92.5 328C88.3579 328 85 324.642 85 320.5C85 316.358 88.3579 313 92.5 313C96.6421 313 100 316.358 100 320.5Z" fill="#547500"/>
<path d="M206 320.5C206 324.642 202.642 328 198.5 328C194.358 328 191 324.642 191 320.5C191 316.358 194.358 313 198.5 313C202.642 313 206 316.358 206 320.5Z" fill="#547500"/>
<path d="M172 320.5C172 324.642 168.642 328 164.5 328C160.358 328 157 324.642 157 320.5C157 316.358 160.358 313 164.5 313C168.642 313 172 316.358 172 320.5Z" fill="#547500"/>
<path d="M136 320.5C136 324.642 132.642 328 128.5 328C124.358 328 121 324.642 121 320.5C121 316.358 124.358 313 128.5 313C132.642 313 136 316.358 136 320.5Z" fill="#547500"/>
<path d="M208 284.5C208 288.642 204.642 292 200.5 292C196.358 292 193 288.642 193 284.5C193 280.358 196.358 277 200.5 277C204.642 277 208 280.358 208 284.5Z" fill="#547500"/>
<path d="M172 284.5C172 288.642 168.642 292 164.5 292C160.358 292 157 288.642 157 284.5C157 280.358 160.358 277 164.5 277C168.642 277 172 280.358 172 284.5Z" fill="#547500"/>
<path d="M136 284.5C136 288.642 132.642 292 128.5 292C124.358 292 121 288.642 121 284.5C121 280.358 124.358 277 128.5 277C132.642 277 136 280.358 136 284.5Z" fill="#547500"/>
<path d="M1804 976.5C1804 980.642 1800.64 984 1796.5 984C1792.36 984 1789 980.642 1789 976.5C1789 972.358 1792.36 969 1796.5 969C1800.64 969 1804 972.358 1804 976.5Z" fill="#547500"/>
<path d="M1804 1012.5C1804 1016.64 1800.64 1020 1796.5 1020C1792.36 1020 1789 1016.64 1789 1012.5C1789 1008.36 1792.36 1005 1796.5 1005C1800.64 1005 1804 1008.36 1804 1012.5Z" fill="#547500"/>
<path d="M1910 1012.5C1910 1016.64 1906.64 1020 1902.5 1020C1898.36 1020 1895 1016.64 1895 1012.5C1895 1008.36 1898.36 1005 1902.5 1005C1906.64 1005 1910 1008.36 1910 1012.5Z" fill="#547500"/>
<path d="M1876 1012.5C1876 1016.64 1872.64 1020 1868.5 1020C1864.36 1020 1861 1016.64 1861 1012.5C1861 1008.36 1864.36 1005 1868.5 1005C1872.64 1005 1876 1008.36 1876 1012.5Z" fill="#547500"/>
<path d="M1840 1012.5C1840 1016.64 1836.64 1020 1832.5 1020C1828.36 1020 1825 1016.64 1825 1012.5C1825 1008.36 1828.36 1005 1832.5 1005C1836.64 1005 1840 1008.36 1840 1012.5Z" fill="#547500"/>
<path d="M1912 976.5C1912 980.642 1908.64 984 1904.5 984C1900.36 984 1897 980.642 1897 976.5C1897 972.358 1900.36 969 1904.5 969C1908.64 969 1912 972.358 1912 976.5Z" fill="#547500"/>
<path d="M1876 976.5C1876 980.642 1872.64 984 1868.5 984C1864.36 984 1861 980.642 1861 976.5C1861 972.358 1864.36 969 1868.5 969C1872.64 969 1876 972.358 1876 976.5Z" fill="#547500"/>
<path d="M1840 976.5C1840 980.642 1836.64 984 1832.5 984C1828.36 984 1825 980.642 1825 976.5C1825 972.358 1828.36 969 1832.5 969C1836.64 969 1840 972.358 1840 976.5Z" fill="#547500"/>
<path d="M1660 976.5C1660 980.642 1656.64 984 1652.5 984C1648.36 984 1645 980.642 1645 976.5C1645 972.358 1648.36 969 1652.5 969C1656.64 969 1660 972.358 1660 976.5Z" fill="#547500"/>
<path d="M1660 1012.5C1660 1016.64 1656.64 1020 1652.5 1020C1648.36 1020 1645 1016.64 1645 1012.5C1645 1008.36 1648.36 1005 1652.5 1005C1656.64 1005 1660 1008.36 1660 1012.5Z" fill="#547500"/>
<path d="M1766 1012.5C1766 1016.64 1762.64 1020 1758.5 1020C1754.36 1020 1751 1016.64 1751 1012.5C1751 1008.36 1754.36 1005 1758.5 1005C1762.64 1005 1766 1008.36 1766 1012.5Z" fill="#547500"/>
<path d="M1732 1012.5C1732 1016.64 1728.64 1020 1724.5 1020C1720.36 1020 1717 1016.64 1717 1012.5C1717 1008.36 1720.36 1005 1724.5 1005C1728.64 1005 1732 1008.36 1732 1012.5Z" fill="#547500"/>
<path d="M1696 1012.5C1696 1016.64 1692.64 1020 1688.5 1020C1684.36 1020 1681 1016.64 1681 1012.5C1681 1008.36 1684.36 1005 1688.5 1005C1692.64 1005 1696 1008.36 1696 1012.5Z" fill="#547500"/>
<path d="M1768 976.5C1768 980.642 1764.64 984 1760.5 984C1756.36 984 1753 980.642 1753 976.5C1753 972.358 1756.36 969 1760.5 969C1764.64 969 1768 972.358 1768 976.5Z" fill="#547500"/>
<path d="M1732 976.5C1732 980.642 1728.64 984 1724.5 984C1720.36 984 1717 980.642 1717 976.5C1717 972.358 1720.36 969 1724.5 969C1728.64 969 1732 972.358 1732 976.5Z" fill="#547500"/>
<path d="M1696 976.5C1696 980.642 1692.64 984 1688.5 984C1684.36 984 1681 980.642 1681 976.5C1681 972.358 1684.36 969 1688.5 969C1692.64 969 1696 972.358 1696 976.5Z" fill="#547500"/>
<path d="M1052.5 4.89634e-05L997.762 45.0924C969.479 68.3908 965.399 110.188 988.641 138.517C1011.92 166.886 1053.78 171.015 1082.15 147.741L1262.23 4.71286e-05L1052.5 4.89634e-05Z" fill="#FFA101"/>
<path d="M638 0.197205L726.514 108.084C761.544 150.781 824.555 156.997 867.252 121.966L1015.67 0.197197L638 0.197205Z" fill="#FFA101"/>
<path d="M914 879C914 928.706 873.706 969 824 969C774.294 969 734 928.706 734 879C734 829.294 774.294 789 824 789C873.706 789 914 829.294 914 879Z" fill="#A2A727"/>
<path d="M119.438 373.928L0.119223 479.328L0.11922 680.622L127.371 568.214L206.507 498.31C237.083 471.301 242.378 421.562 218.335 387.215C194.291 352.868 150.014 346.919 119.438 373.928Z" fill="#FF7300"/>
<path d="M301.9 672.108L259.165 611.06C231.882 572.085 181.638 565.334 146.942 595.983L7.2613e-07 725.784L0 1053L288.478 798.174C323.174 767.525 329.183 711.084 301.9 672.108Z" fill="#FF7300"/>
<path d="M7.2613e-07 725.784L146.942 595.983C127.371 613.27 111.753 582.011 127.371 568.214L0.11922 680.622L7.2613e-07 725.784Z" fill="#FF7300"/>
<path d="M371 686C371 694.284 364.284 701 356 701C347.716 701 341 694.284 341 686C341 677.716 347.716 671 356 671C364.284 671 371 677.716 371 686Z" fill="#547500"/>
<path d="M331 716C331 724.284 324.284 731 316 731C307.716 731 301 724.284 301 716C301 707.716 307.716 701 316 701C324.284 701 331 707.716 331 716Z" fill="#547500"/>
<path d="M166.605 678.887C178.281 669.17 195.622 670.759 205.338 682.434C215.054 694.11 213.466 711.451 201.79 721.167L3.28253e-05 889.094L3.18497e-05 817.533L95.001 738.474L166.605 678.887Z" fill="#FFA101"/>
<path d="M15.9249 600.255C32.9056 586.124 58.1266 588.434 72.2576 605.415L107.668 647.966C121.799 664.946 119.489 690.167 102.508 704.298L82.0855 721.294L0 789.604L0.123043 613.405L15.9249 600.255Z" fill="#FFA101"/>
<path d="M82.0855 721.294L0 789.604L3.18497e-05 817.533L95.001 738.474C84.501 747.212 72.501 729.27 82.0855 721.294Z" fill="#FFA101"/>
<path fill-rule="evenodd" clip-rule="evenodd" d="M656.5 345C699.302 345 734 311.869 734 271C734 230.131 699.302 197 656.5 197C613.698 197 579 230.131 579 271C579 311.869 613.698 345 656.5 345ZM656.869 335.838C694.576 335.838 725.143 306.651 725.143 270.648C725.143 234.644 694.576 205.457 656.869 205.457C619.162 205.457 588.595 234.644 588.595 270.648C588.595 306.651 619.162 335.838 656.869 335.838Z" fill="#EFA55F"/>
<path d="M567 349.262L628.762 297L631.991 300.817L570.23 353.079L567 349.262Z" fill="#547500"/>
<path d="M0 0H1920V1080H0V0Z" fill="#D9D9D9" fill-opacity="0.5"/>
</svg>
