<svg width="1921" height="1080" viewBox="0 0 1921 1080" fill="none" xmlns="http://www.w3.org/2000/svg">
<path d="M1615.58 190.506C1537.44 190.506 1474.08 127.154 1474.08 49.0059C1474.08 31.7803 1477.16 15.2737 1482.8 0.00590515H1748.37C1754.01 15.2737 1757.08 31.7803 1757.08 49.0059C1757.08 127.154 1693.73 190.506 1615.58 190.506Z" fill="#A2A727"/>
<path d="M1564.08 580.006C1564.08 602.097 1581.99 620.006 1604.08 620.006C1626.18 620.006 1644.08 602.097 1644.08 580.006C1644.08 557.915 1626.18 540.006 1604.08 540.006C1581.99 540.006 1564.08 557.915 1564.08 580.006Z" fill="#262241"/>
<path d="M483.169 358.046L264.056 179.026L44.9424 0.00590515L419.126 0.00592015L633.194 173.885C684.211 215.324 691.871 290.319 650.286 341.217C608.785 392.013 533.964 399.547 483.169 358.046Z" fill="#9B94F2"/>
<path d="M0.5 0.00590515L253.846 211.933L255 212.899L587.464 484.53C637.742 525.608 645.2 599.666 604.122 649.944C563.044 700.222 488.986 707.679 438.708 666.601L245.77 508.967L0.5 308.576V0.00590515Z" fill="#9B94F2"/>
<path d="M287.595 770.196L202.767 874.022C152.413 935.654 61.6311 944.795 0 894.441V341.526L229.5 529.032L266.341 559.132C330.494 611.546 340.01 706.043 287.595 770.196Z" fill="#9B94F2"/>
<path d="M44.9424 0.00590515L264.056 179.026C240.326 159.639 226.382 188.407 253.846 211.933L0.5 0.00590515H44.9424Z" fill="#9B94F2"/>
<path d="M0.5 308.576L245.77 508.967C215 483.828 195 500.845 229.5 529.032L0 341.526L0.5 308.576Z" fill="#9B94F2"/>
<path d="M270.799 2.2532e-05L412.487 128.417C425.923 140.594 426.962 161.351 414.811 174.809C402.639 188.29 381.843 189.347 368.367 177.17L270.333 88.585L172.299 0L270.799 2.2532e-05Z" fill="#5D5683"/>
<path d="M155.251 0.121857L262.084 96.5823L310.027 139.87C317.239 146.381 317.807 157.506 311.295 164.718C304.784 171.929 293.659 172.497 286.447 165.986L262.084 146.506L102.746 0.121858L155.251 0.121857Z" fill="#5D5683"/>
<path d="M80.0437 0.00589153L209.83 117.19C226.797 132.51 229.627 157.646 217.481 176.19C216.198 178.15 214.747 180.036 213.128 181.83C211.409 183.733 209.567 185.459 207.624 187.006C190.42 200.7 165.345 200.348 148.488 185.128L3.08472 53.8428V0.00589057L80.0437 0.00589153Z" fill="#5D5683"/>
<path d="M172.299 0L270.333 88.585C265.819 84.5059 256.584 91.6163 262.084 96.5823L155.251 0.121857L172.299 0Z" fill="#5D5683"/>
<path d="M209.83 117.19L80.0437 0.00589153L102.746 0.121858L262.084 146.506C250.084 135.671 233.223 156.653 217.481 176.19C229.627 157.646 226.797 132.51 209.83 117.19Z" fill="#5D5683"/>
<path d="M501.499 515.35L498.285 519.18L3.08447 103.658V97.1309L501.499 515.35Z" fill="white"/>
<path d="M114.084 352.006C114.084 368.574 127.516 382.006 144.084 382.006C160.653 382.006 174.084 368.574 174.084 352.006C174.084 335.437 160.653 322.006 144.084 322.006C127.516 322.006 114.084 335.437 114.084 352.006Z" fill="white"/>
<path d="M385.084 626.006C385.084 634.29 391.8 641.006 400.084 641.006C408.369 641.006 415.084 634.29 415.084 626.006C415.084 617.722 408.369 611.006 400.084 611.006C391.8 611.006 385.084 617.722 385.084 626.006Z" fill="#547500"/>
<path d="M976.084 233.506C976.084 237.648 979.442 241.006 983.584 241.006C987.727 241.006 991.084 237.648 991.084 233.506C991.084 229.364 987.727 226.006 983.584 226.006C979.442 226.006 976.084 229.364 976.084 233.506Z" fill="#547500"/>
<path d="M1010.08 233.506C1010.08 237.648 1013.44 241.006 1017.58 241.006C1021.73 241.006 1025.08 237.648 1025.08 233.506C1025.08 229.364 1021.73 226.006 1017.58 226.006C1013.44 226.006 1010.08 229.364 1010.08 233.506Z" fill="#547500"/>
<path d="M974.084 197.506C974.084 201.648 977.442 205.006 981.584 205.006C985.727 205.006 989.084 201.648 989.084 197.506C989.084 193.364 985.727 190.006 981.584 190.006C977.442 190.006 974.084 193.364 974.084 197.506Z" fill="#547500"/>
<path d="M1010.08 197.506C1010.08 201.648 1013.44 205.006 1017.58 205.006C1021.73 205.006 1025.08 201.648 1025.08 197.506C1025.08 193.364 1021.73 190.006 1017.58 190.006C1013.44 190.006 1010.08 193.364 1010.08 197.506Z" fill="#547500"/>
<path d="M1820.08 284.506C1820.08 288.648 1823.44 292.006 1827.58 292.006C1831.73 292.006 1835.08 288.648 1835.08 284.506C1835.08 280.364 1831.73 277.006 1827.58 277.006C1823.44 277.006 1820.08 280.364 1820.08 284.506Z" fill="#547500"/>
<path d="M1820.08 320.506C1820.08 324.648 1823.44 328.006 1827.58 328.006C1831.73 328.006 1835.08 324.648 1835.08 320.506C1835.08 316.364 1831.73 313.006 1827.58 313.006C1823.44 313.006 1820.08 316.364 1820.08 320.506Z" fill="#547500"/>
<path d="M1714.08 320.506C1714.08 324.648 1717.44 328.006 1721.58 328.006C1725.73 328.006 1729.08 324.648 1729.08 320.506C1729.08 316.364 1725.73 313.006 1721.58 313.006C1717.44 313.006 1714.08 316.364 1714.08 320.506Z" fill="#547500"/>
<path d="M1748.08 320.506C1748.08 324.648 1751.44 328.006 1755.58 328.006C1759.73 328.006 1763.08 324.648 1763.08 320.506C1763.08 316.364 1759.73 313.006 1755.58 313.006C1751.44 313.006 1748.08 316.364 1748.08 320.506Z" fill="#547500"/>
<path d="M1784.08 320.506C1784.08 324.648 1787.44 328.006 1791.58 328.006C1795.73 328.006 1799.08 324.648 1799.08 320.506C1799.08 316.364 1795.73 313.006 1791.58 313.006C1787.44 313.006 1784.08 316.364 1784.08 320.506Z" fill="#547500"/>
<path d="M1712.08 284.506C1712.08 288.648 1715.44 292.006 1719.58 292.006C1723.73 292.006 1727.08 288.648 1727.08 284.506C1727.08 280.364 1723.73 277.006 1719.58 277.006C1715.44 277.006 1712.08 280.364 1712.08 284.506Z" fill="#547500"/>
<path d="M1748.08 284.506C1748.08 288.648 1751.44 292.006 1755.58 292.006C1759.73 292.006 1763.08 288.648 1763.08 284.506C1763.08 280.364 1759.73 277.006 1755.58 277.006C1751.44 277.006 1748.08 280.364 1748.08 284.506Z" fill="#547500"/>
<path d="M1784.08 284.506C1784.08 288.648 1787.44 292.006 1791.58 292.006C1795.73 292.006 1799.08 288.648 1799.08 284.506C1799.08 280.364 1795.73 277.006 1791.58 277.006C1787.44 277.006 1784.08 280.364 1784.08 284.506Z" fill="#547500"/>
<path d="M116.084 976.506C116.084 980.648 119.442 984.006 123.584 984.006C127.727 984.006 131.084 980.648 131.084 976.506C131.084 972.364 127.727 969.006 123.584 969.006C119.442 969.006 116.084 972.364 116.084 976.506Z" fill="#547500"/>
<path d="M116.084 1012.51C116.084 1016.65 119.442 1020.01 123.584 1020.01C127.727 1020.01 131.084 1016.65 131.084 1012.51C131.084 1008.36 127.727 1005.01 123.584 1005.01C119.442 1005.01 116.084 1008.36 116.084 1012.51Z" fill="#547500"/>
<path d="M10.0845 1012.51C10.0845 1016.65 13.4423 1020.01 17.5845 1020.01C21.7266 1020.01 25.0845 1016.65 25.0845 1012.51C25.0845 1008.36 21.7266 1005.01 17.5845 1005.01C13.4423 1005.01 10.0845 1008.36 10.0845 1012.51Z" fill="#547500"/>
<path d="M44.0845 1012.51C44.0845 1016.65 47.4423 1020.01 51.5845 1020.01C55.7266 1020.01 59.0845 1016.65 59.0845 1012.51C59.0845 1008.36 55.7266 1005.01 51.5845 1005.01C47.4423 1005.01 44.0845 1008.36 44.0845 1012.51Z" fill="#547500"/>
<path d="M80.0845 1012.51C80.0845 1016.65 83.4423 1020.01 87.5845 1020.01C91.7266 1020.01 95.0845 1016.65 95.0845 1012.51C95.0845 1008.36 91.7266 1005.01 87.5845 1005.01C83.4423 1005.01 80.0845 1008.36 80.0845 1012.51Z" fill="#547500"/>
<path d="M8.08447 976.506C8.08447 980.648 11.4423 984.006 15.5845 984.006C19.7266 984.006 23.0845 980.648 23.0845 976.506C23.0845 972.364 19.7266 969.006 15.5845 969.006C11.4423 969.006 8.08447 972.364 8.08447 976.506Z" fill="#547500"/>
<path d="M44.0845 976.506C44.0845 980.648 47.4423 984.006 51.5845 984.006C55.7266 984.006 59.0845 980.648 59.0845 976.506C59.0845 972.364 55.7266 969.006 51.5845 969.006C47.4423 969.006 44.0845 972.364 44.0845 976.506Z" fill="#547500"/>
<path d="M80.0845 976.506C80.0845 980.648 83.4423 984.006 87.5845 984.006C91.7266 984.006 95.0845 980.648 95.0845 976.506C95.0845 972.364 91.7266 969.006 87.5845 969.006C83.4423 969.006 80.0845 972.364 80.0845 976.506Z" fill="#547500"/>
<path d="M260.084 976.506C260.084 980.648 263.442 984.006 267.584 984.006C271.727 984.006 275.084 980.648 275.084 976.506C275.084 972.364 271.727 969.006 267.584 969.006C263.442 969.006 260.084 972.364 260.084 976.506Z" fill="#547500"/>
<path d="M260.084 1012.51C260.084 1016.65 263.442 1020.01 267.584 1020.01C271.727 1020.01 275.084 1016.65 275.084 1012.51C275.084 1008.36 271.727 1005.01 267.584 1005.01C263.442 1005.01 260.084 1008.36 260.084 1012.51Z" fill="#547500"/>
<path d="M154.084 1012.51C154.084 1016.65 157.442 1020.01 161.584 1020.01C165.727 1020.01 169.084 1016.65 169.084 1012.51C169.084 1008.36 165.727 1005.01 161.584 1005.01C157.442 1005.01 154.084 1008.36 154.084 1012.51Z" fill="#547500"/>
<path d="M188.084 1012.51C188.084 1016.65 191.442 1020.01 195.584 1020.01C199.727 1020.01 203.084 1016.65 203.084 1012.51C203.084 1008.36 199.727 1005.01 195.584 1005.01C191.442 1005.01 188.084 1008.36 188.084 1012.51Z" fill="#547500"/>
<path d="M224.084 1012.51C224.084 1016.65 227.442 1020.01 231.584 1020.01C235.727 1020.01 239.084 1016.65 239.084 1012.51C239.084 1008.36 235.727 1005.01 231.584 1005.01C227.442 1005.01 224.084 1008.36 224.084 1012.51Z" fill="#547500"/>
<path d="M152.084 976.506C152.084 980.648 155.442 984.006 159.584 984.006C163.727 984.006 167.084 980.648 167.084 976.506C167.084 972.364 163.727 969.006 159.584 969.006C155.442 969.006 152.084 972.364 152.084 976.506Z" fill="#547500"/>
<path d="M188.084 976.506C188.084 980.648 191.442 984.006 195.584 984.006C199.727 984.006 203.084 980.648 203.084 976.506C203.084 972.364 199.727 969.006 195.584 969.006C191.442 969.006 188.084 972.364 188.084 976.506Z" fill="#547500"/>
<path d="M224.084 976.506C224.084 980.648 227.442 984.006 231.584 984.006C235.727 984.006 239.084 980.648 239.084 976.506C239.084 972.364 235.727 969.006 231.584 969.006C227.442 969.006 224.084 972.364 224.084 976.506Z" fill="#547500"/>
<path d="M867.584 0.00590834L922.323 45.0983C950.605 68.3966 954.686 110.194 931.444 138.523C908.169 166.892 866.304 171.021 837.935 147.746L657.859 0.0059065L867.584 0.00590834Z" fill="#9B94F2"/>
<path d="M1282.08 0.203064L1193.57 108.09C1158.54 150.787 1095.53 157.003 1052.83 121.972L904.412 0.203057L1282.08 0.203064Z" fill="#9B94F2"/>
<path d="M1006.08 879.006C1006.08 928.712 1046.38 969.006 1096.08 969.006C1145.79 969.006 1186.08 928.712 1186.08 879.006C1186.08 829.3 1145.79 789.006 1096.08 789.006C1046.38 789.006 1006.08 829.3 1006.08 879.006Z" fill="#A2A727"/>
<path d="M1800.65 373.934L1919.97 479.334L1919.97 680.628L1792.71 568.22L1713.58 498.316C1683 471.307 1677.71 421.568 1701.75 387.221C1725.79 352.874 1770.07 346.925 1800.65 373.934Z" fill="#5D5683"/>
<path d="M1618.18 672.114L1660.92 611.066C1688.2 572.09 1738.45 565.34 1773.14 595.989L1920.08 725.789L1920.08 1053.01L1631.61 798.18C1596.91 767.531 1590.9 711.09 1618.18 672.114Z" fill="#5D5683"/>
<path d="M1920.08 725.789L1773.14 595.989C1792.71 613.276 1808.33 582.016 1792.71 568.22L1919.97 680.628L1920.08 725.789Z" fill="#5D5683"/>
<path d="M1549.08 686.006C1549.08 694.29 1555.8 701.006 1564.08 701.006C1572.37 701.006 1579.08 694.29 1579.08 686.006C1579.08 677.722 1572.37 671.006 1564.08 671.006C1555.8 671.006 1549.08 677.722 1549.08 686.006Z" fill="#547500"/>
<path d="M1589.08 716.006C1589.08 724.29 1595.8 731.006 1604.08 731.006C1612.37 731.006 1619.08 724.29 1619.08 716.006C1619.08 707.722 1612.37 701.006 1604.08 701.006C1595.8 701.006 1589.08 707.722 1589.08 716.006Z" fill="#547500"/>
<path d="M1753.48 678.892C1741.8 669.176 1724.46 670.765 1714.75 682.44C1705.03 694.115 1706.62 711.457 1718.29 721.173L1920.08 889.1L1920.08 817.539L1825.08 738.48L1753.48 678.892Z" fill="#9B94F2"/>
<path d="M1904.16 600.261C1887.18 586.13 1861.96 588.44 1847.83 605.42L1812.42 647.971C1798.29 664.952 1800.6 690.173 1817.58 704.304L1838 721.3L1920.08 789.61L1919.96 613.411L1904.16 600.261Z" fill="#9B94F2"/>
<path d="M1838 721.3L1920.08 789.61L1920.08 817.539L1825.08 738.48C1835.58 747.218 1847.58 729.276 1838 721.3Z" fill="#9B94F2"/>
<path fill-rule="evenodd" clip-rule="evenodd" d="M1263.58 345.006C1220.78 345.006 1186.08 311.875 1186.08 271.006C1186.08 230.137 1220.78 197.006 1263.58 197.006C1306.39 197.006 1341.08 230.137 1341.08 271.006C1341.08 311.875 1306.39 345.006 1263.58 345.006ZM1263.22 335.844C1225.51 335.844 1194.94 306.657 1194.94 270.654C1194.94 234.65 1225.51 205.463 1263.22 205.463C1300.92 205.463 1331.49 234.65 1331.49 270.654C1331.49 306.657 1300.92 335.844 1263.22 335.844Z" fill="#262241"/>
<path d="M1353.08 349.268L1291.32 297.006L1288.09 300.823L1349.85 353.085L1353.08 349.268Z" fill="#547500"/>
<path d="M1920.08 0.00585938H0.0844727V1080.01H1920.08V0.00585938Z" fill="#D9D9D9" fill-opacity="0.5"/>
</svg>
